<svg xmlns="http://www.w3.org/2000/svg" viewBox="0 0 980 455" role="img"><rect width="980" height="455" fill="#fff"/><rect x="0" y="0" width="980" height="2" fill="#111"/><rect x="12" y="14" width="956" height="56" fill="#f6f8fa"/><circle cx="24" cy="42" r="8" fill="#d0d7de"/><circle cx="52" cy="42" r="10" fill="#24292f"/><text x="76" y="45" font-family="Arial" font-size="11" fill="#57606a">JERISH-C-MOSES</text><text x="178" y="45" font-family="Arial" font-size="11" font-weight="700" fill="#24292f">selenium-practice-website</text><rect x="624" y="25" width="122" height="24" rx="6" fill="#fff" stroke="#d0d7de"/><text x="648" y="41" font-family="Arial" font-size="10" fill="#57606a">Type / to search</text><g font-family="Arial" font-size="12" fill="#57606a"><text x="18" y="88">Code</text><text x="72" y="88">Issues</text><text x="124" y="88">Pull requests</text><text x="220" y="88">Actions</text><text x="292" y="88">Projects</text><text x="360" y="88">Wiki</text><text x="412" y="88">Security and quality</text><text x="540" y="88">Insights</text><text x="610" y="88">Settings</text></g><line x1="118" y1="96" x2="196" y2="96" stroke="#fd8c73" stroke-width="2"/><g font-family="Arial, sans-serif"><rect x="134" y="14" width="520" height="46" rx="6" fill="#fff" stroke="#d0d7de"/><text x="154" y="42" font-size="13" font-weight="700" fill="#24292f">This branch has not been deployed</text><rect x="134" y="74" width="520" height="158" rx="6" fill="#f6f8fa" stroke="#d0d7de"/><text x="162" y="108" font-size="16" font-weight="700" fill="#24292f">Some checks haven't completed yet</text><text x="162" y="132" font-size="12" fill="#57606a">1 queued, 1 successful checks</text><text x="150" y="180" font-size="13" fill="#24292f">Node Check / check (pull_request)</text><text x="150" y="214" font-size="13" fill="#24292f">Node Check / check (push)</text><rect x="134" y="240" width="520" height="54" rx="6" fill="#fff" stroke="#d0d7de"/><circle cx="154" cy="266" r="11" fill="#1a7f37"/><text x="178" y="270" font-size="15" font-weight="700" fill="#24292f">No conflicts with base branch</text><rect x="144" y="310" width="124" height="24" rx="4" fill="#f6f8fa" stroke="#d0d7de"/><text x="158" y="326" font-size="11" font-weight="700" fill="#24292f">Merge pull request</text><text x="686" y="86" font-size="12" fill="#57606a">Milestone</text><text x="686" y="154" font-size="12" fill="#57606a">Development</text><text x="686" y="250" font-size="12" fill="#57606a">Notifications</text><rect x="134" y="350" width="520" height="92" rx="6" fill="#fff" stroke="#d0d7de"/><text x="156" y="382" font-size="14" font-weight="700" fill="#24292f">Add a comment</text><rect x="146" y="398" width="498" height="40" rx="4" fill="#fff" stroke="#d0d7de"/></g><rect x="968" y="0" width="5" height="455" fill="#8a8a8a"/></svg>