<svg xmlns="http://www.w3.org/2000/svg" viewBox="0 0 980 470" role="img"><rect width="980" height="470" fill="#fff"/><rect x="0" y="0" width="980" height="2" fill="#111"/><rect x="12" y="14" width="956" height="56" fill="#f6f8fa"/><circle cx="24" cy="42" r="8" fill="#d0d7de"/><circle cx="52" cy="42" r="10" fill="#24292f"/><text x="76" y="45" font-family="Arial" font-size="11" fill="#57606a">JERISH-C-MOSES</text><text x="178" y="45" font-family="Arial" font-size="11" font-weight="700" fill="#24292f">selenium-practice-website</text><rect x="624" y="25" width="122" height="24" rx="6" fill="#fff" stroke="#d0d7de"/><text x="648" y="41" font-family="Arial" font-size="10" fill="#57606a">Type / to search</text><g font-family="Arial" font-size="12" fill="#57606a"><text x="18" y="88">Code</text><text x="72" y="88">Issues</text><text x="124" y="88">Pull requests</text><text x="220" y="88">Actions</text><text x="292" y="88">Projects</text><text x="360" y="88">Wiki</text><text x="412" y="88">Security and quality</text><text x="540" y="88">Insights</text><text x="610" y="88">Settings</text></g><line x1="118" y1="96" x2="196" y2="96" stroke="#fd8c73" stroke-width="2"/><g font-family="Arial, sans-serif"><rect x="100" y="118" width="774" height="66" rx="6" fill="#fff" stroke="#d0d7de"/><text x="390" y="146" font-size="13" font-weight="700" fill="#24292f">Label issues and pull requests for new contributors</text><text x="312" y="166" font-size="11" fill="#57606a">Now, GitHub will help potential first-time contributors discover issues labeled with good first issue</text><rect x="100" y="198" width="774" height="30" rx="4" fill="#fff8c5" stroke="#f0d98c"/><text x="126" y="218" font-size="12" font-weight="700" fill="#6f4e00">Testing-branch had recent pushes 2 minutes ago</text><rect x="748" y="204" width="116" height="20" rx="4" fill="#1f883d"/><text x="764" y="218" font-size="10" font-weight="700" fill="#fff">Compare &amp; pull request</text><rect x="100" y="238" width="774" height="210" rx="6" fill="#fff" stroke="#d0d7de"/><text x="396" y="328" font-size="24" fill="#24292f">Welcome to pull requests!</text><text x="268" y="354" font-size="13" fill="#57606a">Pull requests help you collaborate on code with other people.</text></g><rect x="968" y="0" width="5" height="470" fill="#8a8a8a"/></svg>