<svg xmlns="http://www.w3.org/2000/svg" viewBox="0 0 980 500" role="img"><rect width="980" height="500" fill="#fff"/><rect x="0" y="0" width="980" height="2" fill="#111"/><rect x="12" y="14" width="956" height="56" fill="#f6f8fa"/><circle cx="24" cy="42" r="8" fill="#d0d7de"/><circle cx="52" cy="42" r="10" fill="#24292f"/><text x="76" y="45" font-family="Arial" font-size="11" fill="#57606a">JERISH-C-MOSES</text><text x="178" y="45" font-family="Arial" font-size="11" font-weight="700" fill="#24292f">selenium-practice-website</text><rect x="624" y="25" width="122" height="24" rx="6" fill="#fff" stroke="#d0d7de"/><text x="648" y="41" font-family="Arial" font-size="10" fill="#57606a">Type / to search</text><g font-family="Arial" font-size="12" fill="#57606a"><text x="18" y="88">Code</text><text x="72" y="88">Issues</text><text x="124" y="88">Pull requests</text><text x="220" y="88">Actions</text><text x="292" y="88">Projects</text><text x="360" y="88">Wiki</text><text x="412" y="88">Security and quality</text><text x="540" y="88">Insights</text><text x="610" y="88">Settings</text></g><line x1="118" y1="96" x2="196" y2="96" stroke="#fd8c73" stroke-width="2"/><g font-family="Arial, sans-serif"><text x="100" y="132" font-size="24" fill="#24292f">Comparing changes</text><rect x="100" y="178" width="774" height="36" rx="6" fill="#f6f8fa" stroke="#d0d7de"/><text x="328" y="200" font-size="12" fill="#1a7f37">Able to merge. These branches can be automatically merged.</text><rect x="100" y="228" width="774" height="48" rx="6" fill="#ddf4ff" stroke="#9bd7ff"/><text x="118" y="258" font-size="12" fill="#57606a">Discuss and review the changes in this comparison with others.</text><rect x="764" y="242" width="92" height="22" rx="5" fill="#1f883d"/><text x="782" y="257" font-size="10" font-weight="700" fill="#fff">Create pull request</text><rect x="126" y="326" width="746" height="44" rx="6" fill="#fff" stroke="#d0d7de"/><text x="140" y="352" font-size="12" font-weight="700" fill="#24292f">Login Alignment Changed</text><text x="142" y="376" font-size="12" fill="#24292f">Showing 2 changed files with 21 additions and 1 deletion.</text><rect x="120" y="398" width="730" height="72" fill="#f6f8fa" stroke="#d0d7de"/><rect x="120" y="424" width="730" height="22" fill="#ddf4ff"/><rect x="120" y="464" width="730" height="18" fill="#ffebe9"/></g><rect x="968" y="0" width="5" height="500" fill="#8a8a8a"/></svg>