<svg xmlns="http://www.w3.org/2000/svg" viewBox="0 0 980 470" role="img"><rect width="980" height="470" fill="#fff"/><rect x="0" y="0" width="980" height="2" fill="#111"/><rect x="12" y="14" width="956" height="56" fill="#f6f8fa"/><circle cx="24" cy="42" r="8" fill="#d0d7de"/><circle cx="52" cy="42" r="10" fill="#24292f"/><text x="76" y="45" font-family="Arial" font-size="11" fill="#57606a">JERISH-C-MOSES</text><text x="178" y="45" font-family="Arial" font-size="11" font-weight="700" fill="#24292f">selenium-practice-website</text><rect x="624" y="25" width="122" height="24" rx="6" fill="#fff" stroke="#d0d7de"/><text x="648" y="41" font-family="Arial" font-size="10" fill="#57606a">Type / to search</text><g font-family="Arial" font-size="12" fill="#57606a"><text x="18" y="88">Code</text><text x="72" y="88">Issues</text><text x="124" y="88">Pull requests</text><text x="220" y="88">Actions</text><text x="292" y="88">Projects</text><text x="360" y="88">Wiki</text><text x="412" y="88">Security and quality</text><text x="540" y="88">Insights</text><text x="610" y="88">Settings</text></g><line x1="118" y1="96" x2="196" y2="96" stroke="#fd8c73" stroke-width="2"/><g font-family="Arial, sans-serif"><text x="100" y="134" font-size="24" fill="#24292f">Compare changes</text><text x="100" y="154" font-size="12" fill="#57606a">Compare changes across branches, commits, tags, and more below.</text><rect x="100" y="188" width="774" height="36" rx="6" fill="#f6f8fa" stroke="#d0d7de"/><rect x="132" y="196" width="64" height="20" rx="4" fill="#fff" stroke="#d0d7de"/><text x="142" y="210" font-size="10" fill="#24292f">base: main</text><rect x="218" y="196" width="86" height="20" rx="4" fill="#fff" stroke="#d0d7de"/><text x="228" y="210" font-size="10" fill="#24292f">compare: main</text><rect x="100" y="238" width="774" height="42" rx="4" fill="#fff8c5" stroke="#f0d98c"/><text x="112" y="264" font-size="12" fill="#57606a">Choose different branches or forks above to discuss and review changes.</text><text x="368" y="350" font-size="22" font-weight="700" fill="#24292f">Compare and review just about anything</text><rect x="312" y="386" width="348" height="64" fill="#f6f8fa" stroke="#d0d7de"/><text x="326" y="412" font-size="12" fill="#0969da">Testing-branch</text><text x="326" y="438" font-size="12" fill="#0969da">main@{1day}...main</text></g><rect x="968" y="0" width="5" height="470" fill="#8a8a8a"/></svg>