<svg xmlns="http://www.w3.org/2000/svg" viewBox="0 0 980 545" role="img"><rect width="980" height="545" fill="#fff"/><rect x="0" y="0" width="980" height="2" fill="#111"/><rect x="12" y="14" width="956" height="56" fill="#f6f8fa"/><circle cx="24" cy="42" r="8" fill="#d0d7de"/><circle cx="52" cy="42" r="10" fill="#24292f"/><text x="76" y="45" font-family="Arial" font-size="11" fill="#57606a">JERISH-C-MOSES</text><text x="178" y="45" font-family="Arial" font-size="11" font-weight="700" fill="#24292f">selenium-practice-website</text><rect x="624" y="25" width="122" height="24" rx="6" fill="#fff" stroke="#d0d7de"/><text x="648" y="41" font-family="Arial" font-size="10" fill="#57606a">Type / to search</text><g font-family="Arial" font-size="12" fill="#57606a"><text x="18" y="88">Code</text><text x="72" y="88">Issues</text><text x="124" y="88">Pull requests</text><text x="220" y="88">Actions</text><text x="292" y="88">Projects</text><text x="360" y="88">Wiki</text><text x="412" y="88">Security and quality</text><text x="540" y="88">Insights</text><text x="610" y="88">Settings</text></g><line x1="118" y1="96" x2="196" y2="96" stroke="#fd8c73" stroke-width="2"/><g font-family="Arial, sans-serif"><text x="100" y="78" font-size="24" fill="#24292f">Open a pull request</text><text x="100" y="98" font-size="12" fill="#57606a">Create a new pull request by comparing changes across two branches.</text><rect x="100" y="138" width="774" height="36" rx="6" fill="#f6f8fa" stroke="#d0d7de"/><text x="328" y="160" font-size="12" fill="#1a7f37">Able to merge. These branches can be automatically merged.</text><text x="100" y="210" font-size="14" font-weight="700" fill="#24292f">Add a title *</text><rect x="100" y="222" width="568" height="24" rx="4" fill="#fff" stroke="#d0d7de"/><text x="108" y="238" font-size="12" fill="#24292f">Login Alignment Changed</text><text x="100" y="278" font-size="15" font-weight="700" fill="#24292f">Add a description</text><rect x="100" y="300" width="568" height="160" rx="4" fill="#fff" stroke="#0969da" stroke-width="2"/><text x="112" y="328" font-size="12" fill="#24292f">Hi</text><text x="112" y="348" font-size="12" fill="#24292f">Please close the pull request</text><text x="112" y="368" font-size="12" fill="#24292f">Thank you</text><rect x="546" y="498" width="124" height="26" rx="5" fill="#1f883d"/><text x="570" y="515" font-size="12" font-weight="700" fill="#fff">Create pull request</text><text x="682" y="214" font-size="12" font-weight="700" fill="#57606a">Reviewers</text><text x="682" y="246" font-size="12" font-weight="700" fill="#57606a">Assignees</text><text x="682" y="286" font-size="12" font-weight="700" fill="#57606a">Labels</text><text x="682" y="326" font-size="12" font-weight="700" fill="#57606a">Projects</text><text x="682" y="366" font-size="12" font-weight="700" fill="#57606a">Milestone</text></g><rect x="968" y="0" width="5" height="545" fill="#8a8a8a"/></svg>