<svg xmlns="http://www.w3.org/2000/svg" viewBox="0 0 900 340" role="img" aria-labelledby="title desc">
  <title id="title">GitHub repository preview</title>
  <desc id="desc">A GitHub repository page showing the general-practice repository and Maven_Project folder.</desc>
  <rect width="900" height="340" fill="#ffffff"/>
  <rect x="18" y="18" width="864" height="44" rx="8" fill="#f6f8fa"/>
  <circle cx="34" cy="40" r="9" fill="#d8dee4"/>
  <path d="M54 39c0-6 5-11 11-11s11 5 11 11c0 5-3 9-8 10v-4c0-2-1-3-3-3s-3 1-3 3v4c-5-1-8-5-8-10z" fill="#24292f"/>
  <text x="86" y="43" font-family="Arial, sans-serif" font-size="11" fill="#57606a">JERISH-C-MOSES</text>
  <text x="168" y="43" font-family="Arial, sans-serif" font-size="11" fill="#57606a">/</text>
  <text x="184" y="43" font-family="Arial, sans-serif" font-size="12" font-weight="700" fill="#24292f">general-practice</text>
  <rect x="604" y="27" width="120" height="24" rx="6" fill="#ffffff" stroke="#d0d7de"/>
  <text x="628" y="43" font-family="Arial, sans-serif" font-size="10" fill="#57606a">Type / to search</text>
  <rect x="738" y="27" width="32" height="24" rx="6" fill="#ffffff" stroke="#d0d7de"/>
  <rect x="778" y="27" width="32" height="24" rx="6" fill="#ffffff" stroke="#d0d7de"/>
  <rect x="818" y="27" width="32" height="24" rx="6" fill="#ffffff" stroke="#d0d7de"/>
  <circle cx="866" cy="39" r="13" fill="#f6f8fa" stroke="#d0d7de"/>
  <path d="M858 39h16M866 31v16" stroke="#4f7dd1" stroke-width="3"/>

  <g font-family="Arial, sans-serif" font-size="12" fill="#57606a">
    <text x="30" y="78">Code</text>
    <text x="86" y="78">Issues</text>
    <text x="142" y="78">Pull requests</text>
    <text x="234" y="78">Actions</text>
    <text x="304" y="78">Projects</text>
    <text x="376" y="78">Wiki</text>
    <text x="428" y="78">Security and quality</text>
    <text x="552" y="78">Insights</text>
    <text x="624" y="78">Settings</text>
  </g>
  <line x1="26" y1="86" x2="68" y2="86" stroke="#fd8c73" stroke-width="2"/>

  <text x="106" y="112" font-family="Arial, sans-serif" font-size="17" font-weight="700" fill="#24292f">general-practice</text>
  <rect x="240" y="99" width="34" height="16" rx="8" fill="#f6f8fa" stroke="#d0d7de"/>
  <text x="248" y="111" font-family="Arial, sans-serif" font-size="9" fill="#57606a">Public</text>

  <rect x="626" y="99" width="54" height="24" rx="6" fill="#f6f8fa" stroke="#d0d7de"/>
  <text x="646" y="115" font-family="Arial, sans-serif" font-size="10" fill="#24292f">Pin</text>
  <rect x="690" y="99" width="74" height="24" rx="6" fill="#f6f8fa" stroke="#d0d7de"/>
  <text x="707" y="115" font-family="Arial, sans-serif" font-size="10" fill="#24292f">Watch 0</text>
  <rect x="774" y="99" width="74" height="24" rx="6" fill="#f6f8fa" stroke="#d0d7de"/>
  <text x="794" y="115" font-family="Arial, sans-serif" font-size="10" fill="#24292f">Star 0</text>

  <rect x="106" y="144" width="70" height="26" rx="6" fill="#f6f8fa" stroke="#d0d7de"/>
  <text x="132" y="161" font-family="Arial, sans-serif" font-size="11" fill="#24292f">main</text>
  <text x="194" y="161" font-family="Arial, sans-serif" font-size="11" fill="#57606a">1 Branch</text>
  <text x="258" y="161" font-family="Arial, sans-serif" font-size="11" fill="#57606a">0 Tags</text>
  <rect x="384" y="144" width="150" height="26" rx="6" fill="#ffffff" stroke="#d0d7de"/>
  <text x="416" y="161" font-family="Arial, sans-serif" font-size="11" fill="#57606a">Go to file</text>
  <rect x="542" y="144" width="66" height="26" rx="6" fill="#f6f8fa" stroke="#d0d7de"/>
  <text x="562" y="161" font-family="Arial, sans-serif" font-size="11" fill="#24292f">Add file</text>
  <rect x="616" y="144" width="70" height="26" rx="6" fill="#1f883d"/>
  <text x="641" y="161" font-family="Arial, sans-serif" font-size="11" font-weight="700" fill="#ffffff">Code</text>

  <rect x="106" y="184" width="580" height="42" rx="6" fill="#f6f8fa" stroke="#d0d7de"/>
  <circle cx="120" cy="205" r="6" fill="#d0d7de"/>
  <text x="134" y="209" font-family="Arial, sans-serif" font-size="10" font-weight="700" fill="#24292f">JERISH-C-MOSES</text>
  <text x="216" y="209" font-family="Arial, sans-serif" font-size="10" fill="#57606a">Initial commit</text>
  <text x="520" y="209" font-family="Arial, sans-serif" font-size="10" fill="#57606a">fe02db9 - 42 minutes ago</text>
  <text x="640" y="209" font-family="Arial, sans-serif" font-size="10" fill="#24292f">1 Commit</text>

  <rect x="106" y="226" width="580" height="38" fill="#ffffff" stroke="#d0d7de"/>
  <path d="M118 243h12v10h-12z" fill="#54aeff"/>
  <text x="138" y="250" font-family="Arial, sans-serif" font-size="11" fill="#24292f">Maven_Project</text>
  <text x="346" y="250" font-family="Arial, sans-serif" font-size="10" fill="#57606a">Initial commit</text>
  <text x="594" y="250" font-family="Arial, sans-serif" font-size="10" fill="#57606a">42 minutes ago</text>

  <rect x="106" y="264" width="580" height="54" fill="#ffffff" stroke="#d0d7de"/>
  <text x="120" y="282" font-family="Arial, sans-serif" font-size="11" font-weight="700" fill="#24292f">README</text>
  <line x1="116" y1="294" x2="166" y2="294" stroke="#fd8c73" stroke-width="2"/>
  <path d="M386 300h16v13h-16z" fill="none" stroke="#57606a" stroke-width="2"/>
  <path d="M402 300h16v13h-16z" fill="none" stroke="#57606a" stroke-width="2"/>

  <g font-family="Arial, sans-serif">
    <text x="718" y="160" font-size="14" font-weight="700" fill="#24292f">About</text>
    <text x="718" y="190" font-size="12" fill="#57606a">A personal repository for learning</text>
    <text x="718" y="207" font-size="12" fill="#57606a">Selenium automation, including test</text>
    <text x="718" y="224" font-size="12" fill="#57606a">scripts, frameworks, and real-world</text>
    <text x="718" y="241" font-size="12" fill="#57606a">scenarios.</text>
    <text x="718" y="268" font-size="11" fill="#57606a">Activity</text>
    <text x="718" y="288" font-size="11" fill="#57606a">0 stars</text>
    <text x="718" y="308" font-size="11" fill="#57606a">0 watching</text>
    <text x="718" y="328" font-size="11" fill="#57606a">0 forks</text>
  </g>
</svg>
