<svg width="640" height="360" viewBox="0 0 640 360" fill="none" xmlns="http://www.w3.org/2000/svg">
  <rect width="640" height="360" rx="32" fill="#F0F8F6"/>
  <rect x="118" y="58" width="404" height="244" rx="30" fill="#FFFDF9" stroke="#D7E8E5" stroke-width="2"/>
  <rect x="158" y="96" width="270" height="18" rx="9" fill="#243537" fill-opacity="0.9"/>
  <rect x="158" y="136" width="228" height="14" rx="7" fill="#6B7B7E" fill-opacity="0.25"/>
  <rect x="158" y="164" width="252" height="14" rx="7" fill="#6B7B7E" fill-opacity="0.18"/>
  <rect x="158" y="206" width="184" height="14" rx="7" fill="#2F9B8B" fill-opacity="0.7"/>
  <rect x="158" y="234" width="244" height="14" rx="7" fill="#6B7B7E" fill-opacity="0.22"/>
  <rect x="462" y="92" width="18" height="168" rx="9" fill="#D7E8E5"/>
  <rect x="462" y="140" width="18" height="62" rx="9" fill="#2F9B8B"/>
  <path d="M470 64L496 96H480V122H460V96H444L470 64Z" fill="#CB6640"/>
  <path d="M470 296L444 264H460V238H480V264H496L470 296Z" fill="#CB6640"/>
</svg>
