<svg width="640" height="320" viewBox="0 0 640 320" fill="none" xmlns="http://www.w3.org/2000/svg"><rect width="640" height="320" rx="28" fill="#F5F7FF"/><ellipse cx="320" cy="96" rx="156" ry="44" fill="#D5EFEA" stroke="#2F7B74" stroke-width="8"/><path d="M164 96v112c0 24 70 44 156 44s156-20 156-44V96" fill="#FFFDF8"/><path d="M164 96v112c0 24 70 44 156 44s156-20 156-44V96" stroke="#2F7B74" stroke-width="8"/><path d="M164 152c0 24 70 44 156 44s156-20 156-44" stroke="#D8CABB" stroke-width="6"/><path d="M164 204c0 24 70 44 156 44s156-20 156-44" stroke="#D8CABB" stroke-width="6"/></svg>
